<svg width="114" height="27" viewBox="0 0 114 27" fill="none" xmlns="http://www.w3.org/2000/svg">
<g clip-path="url(#clip0_1998_1047)">
<path fill-rule="evenodd" clip-rule="evenodd" d="M6.75555 1.6864V26.9823H0V1.6864H6.75555Z" fill="#585D61"/>
<path fill-rule="evenodd" clip-rule="evenodd" d="M10.1333 1.6864H24.4889C29.1526 1.6864 32.9333 5.46151 32.9333 10.1184C32.9333 14.7752 29.1526 18.5503 24.4889 18.5503H16.8888V26.9823H10.1333V1.6864ZM16.8888 11.8047H24.4889C25.4216 11.8047 26.1778 11.0497 26.1778 10.1184C26.1778 9.18699 25.4216 8.43196 24.4889 8.43196H16.8888V11.8047Z" fill="#585D61"/>
<path fill-rule="evenodd" clip-rule="evenodd" d="M58.2668 1.6864V14.7559C58.2668 17.7829 60.7242 20.2367 63.7556 20.2367C66.7871 20.2367 69.2446 17.7829 69.2446 14.7559V1.6864H76.0003V14.7559C76.0003 21.5084 70.5182 26.9823 63.7556 26.9823C56.9932 26.9823 51.5112 21.5084 51.5112 14.7559V1.6864H58.2668Z" fill="#585D61"/>
<path fill-rule="evenodd" clip-rule="evenodd" d="M35.4667 13.4911C35.4667 6.97155 40.7597 1.6864 47.2889 1.6864H48.9778V8.43196H47.2889C44.4907 8.43196 42.2223 10.6971 42.2223 13.4911V14.3343C42.2223 21.3196 36.5512 26.9823 29.5556 26.9823H28.7112V20.2367H29.5556C32.8202 20.2367 35.4667 17.5941 35.4667 14.3343V13.4911Z" fill="#585D61"/>
<path d="M114 2.52959C114 3.92664 112.866 5.05917 111.466 5.05917C110.067 5.05917 108.933 3.92664 108.933 2.52959C108.933 1.13253 110.067 0 111.466 0C112.866 0 114 1.13253 114 2.52959Z" fill="#EA6D2A"/>
<path d="M83.2536 26.9823L86.4773 13.5033L88.874 21.6123C90.3027 26.4487 97.1636 26.4487 98.593 21.6123L100.989 13.5033L104.213 26.9823H111.158L106.089 5.78735C104.884 0.747033 97.7707 0.560411 96.3015 5.53063L93.7335 14.2219L91.1648 5.53064C89.6963 0.56044 82.5824 0.747006 81.377 5.78734L76.3083 26.9823H83.2536Z" fill="#585D61"/>
</g>
<defs>
<clipPath id="clip0_1998_1047">
<rect width="114" height="26.9822" fill="white"/>
</clipPath>
</defs>
</svg>
